<svg width="60" height="60" viewBox="0 0 60 60" fill="none" xmlns="http://www.w3.org/2000/svg">
<g clip-path="url(#clip0_19607_743)">
<path d="M12.8906 14.7666C12.2437 14.7666 11.7188 15.2916 11.7188 15.9385C11.7188 16.5854 12.2437 17.1104 12.8906 17.1104C13.5375 17.1104 14.0625 16.5854 14.0625 15.9385C14.0625 15.2916 13.5375 14.7666 12.8906 14.7666Z" fill="#6DA015"/>
<path d="M55.1865 24.7887L53.4909 21.3974C52.8914 20.1984 51.6866 19.4536 50.3464 19.4536H40.5452V11.2509C40.5452 9.31246 38.9682 7.73535 37.0297 7.73535H3.51551C1.57699 7.73535 0 9.31234 0 11.2509V41.7183C0 43.6567 1.57699 45.2338 3.51551 45.2338H7.03102C7.03102 47.0331 7.71129 48.6762 8.82703 49.9211H1.17187C0.524648 49.9211 0 50.4459 0 51.093C0 51.7401 0.524648 52.2648 1.17187 52.2648H58.8258C59.473 52.2648 59.9977 51.7401 59.9977 51.093C59.9977 50.4459 59.473 49.9211 58.8258 49.9211H55.8579C56.9737 48.6761 57.6539 47.0331 57.6539 45.2338C57.6539 45.167 57.6507 45.1006 57.6489 45.0339C59.0154 44.5516 59.9975 43.2478 59.9975 41.7183V35.2404C59.9975 33.873 60.2684 35.1496 55.1865 24.7887ZM53.4142 26.4845L56.9297 33.5155H45.2325V26.4845H53.4142ZM2.34363 35.8592H4.68727V38.2028H2.34363V35.8592ZM14.0619 49.9211C11.4773 49.9211 9.37465 47.8183 9.37465 45.2338C9.37465 44.9146 9.40629 44.6004 9.46957 44.2949C9.91031 42.123 11.8417 40.5464 14.0619 40.5464C16.2821 40.5464 18.2136 42.1228 18.6543 44.2949L18.6553 44.2998C18.7177 44.6003 18.7492 44.9146 18.7492 45.2338C18.7492 47.8184 16.6465 49.9211 14.0619 49.9211ZM14.0619 38.2028C11.0595 38.2028 8.40973 40.1262 7.43285 42.8901H3.51551C2.86934 42.8901 2.34363 42.3644 2.34363 41.7182V40.5463H5.85914C6.50637 40.5463 7.03102 40.0216 7.03102 39.3744V34.6872C7.03102 34.0401 6.50637 33.5153 5.85914 33.5153H2.34363V11.2509C2.34363 10.6047 2.86934 10.079 3.51551 10.079H37.0297C37.6759 10.079 38.2016 10.6047 38.2016 11.2509V42.8902H20.6904C19.7118 40.1248 17.0631 38.2028 14.0619 38.2028ZM19.2968 49.9211C20.4127 48.6761 21.0928 47.0331 21.0928 45.2338H43.5919C43.5919 47.0331 44.2721 48.6762 45.3879 49.9211H19.2968ZM50.6229 49.9211C48.0383 49.9211 45.9356 47.8183 45.9356 45.2338C45.9356 44.9146 45.9673 44.6004 46.0305 44.2949C46.4713 42.123 48.4027 40.5464 50.6229 40.5464C52.8431 40.5464 54.7746 42.1228 55.2152 44.2949L55.2163 44.2998C55.2786 44.6003 55.3102 44.9146 55.3102 45.2338C55.3103 47.8184 53.2075 49.9211 50.6229 49.9211ZM57.6539 41.7183C57.6539 42.1081 57.4618 42.453 57.1683 42.6662C56.1287 40.0214 53.5424 38.2029 50.6229 38.2029C47.6204 38.2029 44.9707 40.1263 43.9938 42.8902H40.5451V21.7973H50.3463C50.5642 21.7966 50.7778 21.857 50.9631 21.9715C51.1484 22.0861 51.2978 22.2503 51.3946 22.4454L52.2423 24.1409H44.0607C43.4135 24.1409 42.8889 24.6657 42.8889 25.3128V34.6874C42.8889 35.3345 43.4135 35.8593 44.0607 35.8593H57.6539V41.7183Z" fill="#6DA015"/>
<path d="M32.3429 14.7666H17.5779C16.9307 14.7666 16.406 15.2914 16.406 15.9385C16.406 16.5856 16.9307 17.1104 17.5779 17.1104H32.3429C32.9902 17.1104 33.5148 16.5856 33.5148 15.9385C33.5148 15.2914 32.99 14.7666 32.3429 14.7666ZM32.3429 19.4539H22.2652C21.6179 19.4539 21.0933 19.9786 21.0933 20.6257C21.0933 21.2729 21.6179 21.7976 22.2652 21.7976H32.3429C32.9902 21.7976 33.5148 21.2729 33.5148 20.6257C33.5148 19.9786 32.99 19.4539 32.3429 19.4539ZM50.6234 42.8904C49.331 42.8904 48.2797 43.9418 48.2797 45.2341C48.2797 46.5264 49.3311 47.5777 50.6234 47.5777C51.9157 47.5777 52.967 46.5263 52.967 45.2341C52.967 43.9417 51.9157 42.8904 50.6234 42.8904ZM14.0624 42.8904C12.77 42.8904 11.7188 43.9418 11.7188 45.2341C11.7188 46.5264 12.7702 47.5777 14.0624 47.5777C15.3547 47.5777 16.406 46.5263 16.406 45.2341C16.406 43.9417 15.3547 42.8904 14.0624 42.8904Z" fill="#6DA015"/>
</g>
<defs>
<clipPath id="clip0_19607_743">
<rect width="60" height="60" fill="white"/>
</clipPath>
</defs>
</svg>
